<svg width="100" height="51" viewBox="0 0 100 51" fill="none" xmlns="http://www.w3.org/2000/svg">
<path d="M0 6.61871C0 2.9633 2.9633 0 6.61871 0H93.3813C97.0367 0 100 2.9633 100 6.61871V44.0288C100 47.6842 97.0367 50.6475 93.3813 50.6475H6.6187C2.96329 50.6475 0 47.6842 0 44.0288V6.61871Z" fill="white"/>
<path d="M85.7437 30.4557C84.7582 30.4557 83.8674 30.2914 83.0715 29.9629C82.2755 29.6218 81.6374 29.1037 81.1573 28.4088C80.6898 27.7013 80.4561 26.8232 80.4561 25.7745C80.4561 24.1446 80.892 22.9064 81.7638 22.0598C82.6356 21.2133 83.8738 20.79 85.4784 20.79C87.0704 20.79 88.2707 21.2007 89.0793 22.0219C89.9006 22.8432 90.3112 24.0309 90.3112 25.5849C90.3112 26.0272 90.109 26.2483 89.7047 26.2483H82.7493C82.7493 27.0822 83.0399 27.7265 83.6211 28.1814C84.2023 28.6236 85.0109 28.8447 86.047 28.8447C87.0451 28.8447 87.9422 28.6173 88.7382 28.1624C88.8266 28.1119 88.8961 28.0866 88.9466 28.0866C89.0351 28.0866 89.1046 28.1435 89.1551 28.2572L89.61 29.0721C89.6479 29.148 89.6668 29.2174 89.6668 29.2806C89.6668 29.3691 89.61 29.4512 89.4962 29.527C88.9782 29.8429 88.416 30.0766 87.8095 30.2282C87.2157 30.3798 86.5271 30.4557 85.7437 30.4557ZM88.1127 24.8458C88.1127 24.0624 87.8916 23.4497 87.4494 23.0074C87.0198 22.5652 86.3691 22.3441 85.4973 22.3441C84.6129 22.3441 83.9306 22.5715 83.4505 23.0264C82.983 23.4812 82.7493 24.0877 82.7493 24.8458H88.1127Z" fill="black"/>
<path d="M75.0838 30.4557C73.4033 30.4557 72.0893 30.045 71.1417 29.2238C70.2067 28.3899 69.7393 27.2022 69.7393 25.6608C69.7393 24.7005 69.954 23.854 70.3836 23.1212C70.8132 22.3883 71.426 21.8198 72.222 21.4155C73.0306 20.9985 73.9719 20.79 75.0459 20.79C75.8419 20.79 76.5178 20.8658 77.0738 21.0175C77.6297 21.1691 78.1477 21.4155 78.6278 21.7566C78.7415 21.8324 78.7984 21.9145 78.7984 22.003C78.7984 22.0788 78.7668 22.1672 78.7036 22.2683L78.1919 23.1591C78.1161 23.2854 78.0466 23.3486 77.9835 23.3486C77.9203 23.3486 77.8318 23.3107 77.7181 23.2349C77.3265 22.9948 76.9348 22.8179 76.5431 22.7042C76.1641 22.5779 75.7092 22.5147 75.1785 22.5147C74.2309 22.5147 73.4855 22.799 72.9422 23.3675C72.3989 23.9235 72.1272 24.6879 72.1272 25.6608C72.1272 26.6842 72.3989 27.4549 72.9422 27.9729C73.4855 28.4783 74.2815 28.731 75.3302 28.731C75.8608 28.731 76.322 28.6678 76.7137 28.5415C77.1053 28.4151 77.4844 28.2319 77.8508 27.9919C77.9519 27.9287 78.034 27.8971 78.0972 27.8971C78.173 27.8971 78.2488 27.9603 78.3246 28.0866L78.8742 29.0153C78.9247 29.0785 78.95 29.148 78.95 29.2238C78.95 29.3122 78.8868 29.4006 78.7605 29.4891C78.2551 29.8176 77.7118 30.0577 77.1306 30.2093C76.5494 30.3735 75.8671 30.4557 75.0838 30.4557Z" fill="black"/>
<path d="M62.4132 30.4557C61.175 30.4557 60.1895 30.0829 59.4567 29.3375C58.7238 28.5794 58.3574 27.5181 58.3574 26.1535C58.3574 25.0922 58.5912 24.1572 59.0587 23.3486C59.5261 22.5273 60.1895 21.8956 61.0486 21.4534C61.9204 21.0111 62.9312 20.79 64.081 20.79C65.6856 20.79 67.0438 21.1691 68.1557 21.9272V29.6597C68.1557 29.8492 68.1115 29.9818 68.023 30.0577C67.9472 30.1335 67.8082 30.1714 67.6061 30.1714H66.5637C66.4247 30.1714 66.3173 30.1461 66.2415 30.0956C66.1784 30.0324 66.1341 29.9376 66.1089 29.8113L65.9572 29.0721C65.5656 29.5523 65.0791 29.906 64.4979 30.1335C63.9294 30.3483 63.2345 30.4557 62.4132 30.4557ZM63.3229 28.731C63.9925 28.731 64.5801 28.5352 65.0854 28.1435C65.6035 27.7518 65.8625 27.2338 65.8625 26.5894V22.8937C65.5972 22.7547 65.3255 22.66 65.0475 22.6094C64.7822 22.5463 64.4537 22.5147 64.062 22.5147C63.0639 22.5147 62.2616 22.8306 61.6551 23.4623C61.0486 24.094 60.7454 24.9658 60.7454 26.0777C60.7454 26.9874 60.9539 27.657 61.3708 28.0866C61.8004 28.5162 62.4511 28.731 63.3229 28.731Z" fill="black"/>
<path d="M48.2217 33.9997C47.969 33.9997 47.7858 33.9429 47.6721 33.8291C47.571 33.7154 47.5205 33.5449 47.5205 33.3174V21.984C48.0006 21.6429 48.6387 21.3586 49.4347 21.1312C50.2433 20.9038 51.0519 20.79 51.8606 20.79C55.5246 20.79 57.3567 22.4073 57.3567 25.6418C57.3567 27.1327 56.9524 28.3077 56.1438 29.1669C55.3478 30.0261 54.2485 30.4557 52.8461 30.4557C51.57 30.4557 50.5908 30.0892 49.9085 29.3564V33.3174C49.9085 33.5575 49.8516 33.7281 49.7379 33.8291C49.6368 33.9429 49.4536 33.9997 49.1883 33.9997H48.2217ZM52.2775 28.731C53.1746 28.731 53.8442 28.4594 54.2864 27.9161C54.7287 27.3728 54.9498 26.5894 54.9498 25.566C54.9498 24.4668 54.6908 23.6897 54.1727 23.2349C53.6547 22.7674 52.8587 22.5336 51.7847 22.5336C50.9888 22.5336 50.3633 22.6537 49.9085 22.8937V26.6273C49.9085 27.2717 50.1359 27.7834 50.5908 28.1624C51.0456 28.5415 51.6079 28.731 52.2775 28.731Z" fill="black"/>
<path d="M40.9655 30.4561C40.0684 30.4561 39.184 30.3613 38.3122 30.1718C37.453 29.9696 36.7644 29.6916 36.2464 29.3379C36.0821 29.2242 36 29.1231 36 29.0346C36 28.9462 36.0253 28.8704 36.0758 28.8072L36.7012 27.8217C36.777 27.708 36.8465 27.6511 36.9097 27.6511C36.9729 27.6511 37.055 27.6827 37.1561 27.7459C37.6236 28.0239 38.1669 28.2513 38.786 28.4282C39.4051 28.5924 40.0305 28.6745 40.6622 28.6745C41.5214 28.6745 42.1658 28.5356 42.5954 28.2576C43.0376 27.967 43.2587 27.5058 43.2587 26.8741C43.2587 26.495 43.1766 26.1918 43.0123 25.9644C42.8481 25.737 42.608 25.5411 42.2921 25.3769C41.9763 25.2126 41.4645 24.9915 40.757 24.7135L40.3211 24.543C39.4998 24.2145 38.8176 23.8986 38.2743 23.5954C37.7436 23.2921 37.3014 22.8941 36.9476 22.4014C36.5938 21.9086 36.4169 21.3085 36.4169 20.6009C36.4169 19.4512 36.8528 18.5667 37.7247 17.9476C38.6091 17.3159 39.7652 17 41.1929 17C42.0647 17 42.8165 17.0821 43.4482 17.2464C44.0926 17.4106 44.6485 17.6633 45.116 18.0045C45.2676 18.1182 45.3434 18.2256 45.3434 18.3267C45.3434 18.4025 45.3182 18.472 45.2676 18.5351L44.6611 19.5206C44.5853 19.6344 44.5222 19.6912 44.4716 19.6912C44.4211 19.6912 44.339 19.6533 44.2252 19.5775C43.4166 19.0595 42.4122 18.8005 41.2119 18.8005C40.4159 18.8005 39.8157 18.9458 39.4114 19.2364C39.0071 19.527 38.8049 19.9881 38.8049 20.6199C38.8049 21.0115 38.8871 21.3274 39.0513 21.5675C39.2282 21.7949 39.4809 21.9907 39.8094 22.155C40.1379 22.3192 40.6686 22.5404 41.4014 22.8183L41.8752 23.0078C42.7975 23.3743 43.5177 23.7154 44.0357 24.0313C44.5538 24.3345 44.9517 24.7199 45.2297 25.1873C45.5203 25.6422 45.6656 26.2297 45.6656 26.9499C45.6656 28.0365 45.255 28.8957 44.4337 29.5274C43.6251 30.1465 42.469 30.4561 40.9655 30.4561Z" fill="black"/>
<rect x="10" y="14" width="22.6471" height="22.6471" fill="#0D00FF"/>
<path d="M22.2739 19.6328H24.4505V21.8094H22.2739V19.6328ZM22.2739 21.8094H24.4505V23.986H22.2739V21.8094ZM26.6271 19.6328H28.8038V21.8094H26.6271V19.6328ZM26.6271 21.8094H28.8038V23.986H26.6271V21.8094ZM24.4505 23.986H26.6271V26.1626H24.4505V23.986ZM22.2739 26.1626H24.4505V28.3393H22.2739V26.1626ZM22.2739 28.3393H24.4505V30.5159H22.2739V28.3393ZM26.6271 26.1626H28.8038V28.3393H26.6271V26.1626ZM26.6271 28.3393H28.8038V30.5159H26.6271V28.3393Z" fill="white"/>
<path d="M15.7528 19.6328H17.9294V21.8094H15.7528V19.6328ZM17.9294 21.8094H20.106V23.986H17.9294V21.8094ZM17.9294 23.986H20.106V26.1626H17.9294V23.986ZM17.9294 26.1626H20.106V28.3393H17.9294V26.1626ZM15.7528 28.3393H17.9294V30.5159H15.7528V28.3393ZM13.5762 26.1626H15.7528V28.3393H13.5762V26.1626ZM13.5762 23.986H15.7528V26.1626H13.5762V23.986ZM13.5762 21.8094H15.7528V23.986H13.5762V21.8094ZM13.5762 19.6328H15.7528V21.8094H13.5762V19.6328ZM17.9294 19.6328H20.106V21.8094H17.9294V19.6328ZM17.9294 28.3393H20.106V30.5159H17.9294V28.3393ZM13.5762 28.3393H15.7528V30.5159H13.5762V28.3393Z" fill="white"/>
</svg>
