<svg width="100" height="51" viewBox="0 0 100 51" fill="none" xmlns="http://www.w3.org/2000/svg">
<path d="M28.8502 21.807L24.9482 30.6141H22.7007V27.6784H20.617V33.9452L18.0973 32.3449L15.5603 33.9452V27.6784H13.477V30.6141H11.6668C11.0061 30.6141 10.1001 30.6111 10.1001 27.9317C10.1001 25.1654 11.043 25.1621 11.6668 25.1621H24.9914L30.9641 13H17.7528C15.4692 13 14.4406 13.9164 13.2372 15.708C11.7726 17.8883 10.308 20.7045 8.44732 25.1315C8.09408 25.9681 8 27.0078 8 27.9493C8 32.1004 9.97871 32.7089 11.9776 32.7089C12.4896 32.7089 13.0574 32.7047 13.477 32.7047V37.7645L18.0973 34.8297L22.7007 37.7645V32.711H26.3162L31.143 21.807H28.8502Z" fill="#3D45DC"/>
<path d="M88.5606 30.88C88.3334 30.88 88.116 30.8454 87.9086 30.7762C87.711 30.7071 87.5825 30.6083 87.5232 30.4798L84.9149 24.7742C84.8952 24.7347 84.8754 24.6902 84.8556 24.6408C84.8458 24.5815 84.8408 24.5321 84.8408 24.4926C84.8408 24.3148 84.9297 24.1517 85.1076 24.0035C85.2854 23.8553 85.4929 23.7417 85.73 23.6627C85.977 23.5738 86.1993 23.5293 86.3969 23.5293C86.5352 23.5293 86.6637 23.5589 86.7822 23.6182C86.9008 23.6676 86.9848 23.7615 87.0342 23.8998L88.5606 27.7678L90.0871 23.8998C90.1365 23.7615 90.2155 23.6676 90.3242 23.6182C90.4428 23.5589 90.5712 23.5293 90.7095 23.5293C90.8676 23.5293 91.0701 23.5738 91.3171 23.6627C91.5641 23.7516 91.7815 23.8702 91.9692 24.0184C92.1668 24.1666 92.2656 24.3296 92.2656 24.5074C92.2656 24.5568 92.2607 24.6013 92.2508 24.6408C92.2409 24.6803 92.2261 24.7248 92.2063 24.7742L89.598 30.4798C89.5387 30.6083 89.4054 30.7071 89.1979 30.7762C89.0003 30.8454 88.7879 30.88 88.5606 30.88Z" fill="black"/>
<path d="M79.9126 30.8363C79.3988 30.8363 78.9542 30.6783 78.5788 30.3621C78.2033 30.0361 78.0156 29.5371 78.0156 28.8653C78.0156 28.2824 78.1638 27.8279 78.4602 27.5018C78.7566 27.1758 79.1617 26.9486 79.6755 26.8201C80.1991 26.6917 80.8018 26.6275 81.4835 26.6275H82.017V26.4793C82.017 26.3113 81.9824 26.1434 81.9133 25.9754C81.8441 25.8074 81.7305 25.6691 81.5724 25.5604C81.4143 25.4419 81.192 25.3826 80.9055 25.3826C80.5004 25.3826 80.1991 25.4221 80.0015 25.5012C79.8039 25.5802 79.6508 25.6642 79.5421 25.7531C79.4334 25.8321 79.3099 25.8717 79.1716 25.8717C78.9246 25.8717 78.7319 25.7482 78.5936 25.5012C78.4652 25.2542 78.4009 24.9973 78.4009 24.7305C78.4009 24.4934 78.5343 24.2859 78.8011 24.1081C79.0777 23.9302 79.4087 23.7919 79.794 23.6931C80.1892 23.5943 80.5696 23.5449 80.9352 23.5449C81.7453 23.5449 82.3974 23.6832 82.8914 23.9599C83.3854 24.2365 83.746 24.5971 83.9732 25.0417C84.2005 25.4765 84.3141 25.9458 84.3141 26.4496V29.9768C84.3141 30.1744 84.2054 30.3423 83.9881 30.4807C83.7806 30.619 83.5138 30.6881 83.1878 30.6881C82.9013 30.6881 82.6592 30.619 82.4616 30.4807C82.264 30.3423 82.1652 30.1744 82.1652 29.9768V29.6507C81.8985 29.957 81.5872 30.2337 81.2316 30.4807C80.8759 30.7178 80.4362 30.8363 79.9126 30.8363ZM80.9055 29.1617C81.0636 29.1617 81.2266 29.1024 81.3946 28.9838C81.5625 28.8554 81.7058 28.6874 81.8244 28.48C81.9528 28.2725 82.017 28.0452 82.017 27.7982V27.739H81.9577C81.6811 27.739 81.4143 27.7587 81.1575 27.7982C80.9105 27.8279 80.7079 27.902 80.5498 28.0205C80.4016 28.1292 80.3275 28.3021 80.3275 28.5392C80.3275 28.7566 80.3819 28.9147 80.4906 29.0135C80.5992 29.1123 80.7376 29.1617 80.9055 29.1617Z" fill="black"/>
<path d="M70.529 30.6879C70.2425 30.6879 69.9757 30.6286 69.7287 30.51C69.4916 30.3915 69.373 30.2136 69.373 29.9765V20.5658C69.373 20.3189 69.4916 20.141 69.7287 20.0323C69.9757 19.9138 70.2425 19.8545 70.529 19.8545C70.8056 19.8545 71.0329 19.8792 71.2107 19.9286C71.3984 19.9681 71.5664 20.0669 71.7146 20.225C71.8727 20.3831 72.0456 20.6449 72.2333 21.0104L74.6341 25.5898V20.551C74.6341 20.304 74.7527 20.1262 74.9898 20.0175C75.2368 19.9088 75.5036 19.8545 75.7901 19.8545C76.0766 19.8545 76.3384 19.9088 76.5755 20.0175C76.8225 20.1262 76.946 20.304 76.946 20.551V29.9765C76.946 30.2136 76.8225 30.3915 76.5755 30.51C76.3384 30.6286 76.0766 30.6879 75.7901 30.6879C75.5233 30.6879 75.2763 30.6483 75.0491 30.5693C74.8218 30.4903 74.6391 30.3223 74.5007 30.0654L71.685 24.9377V29.9765C71.685 30.2136 71.5615 30.3915 71.3145 30.51C71.0773 30.6286 70.8155 30.6879 70.529 30.6879Z" fill="black"/>
<path d="M61.4275 30.8808C61.2398 30.8808 61.062 30.8512 60.894 30.7919C60.726 30.7326 60.6124 30.6289 60.5531 30.4807L58.2709 24.775C58.2412 24.6959 58.2215 24.6367 58.2116 24.5971C58.2017 24.5477 58.1968 24.5033 58.1968 24.4638C58.1968 24.2859 58.2808 24.1278 58.4487 23.9895C58.6167 23.8512 58.8192 23.7425 59.0563 23.6635C59.2935 23.5844 59.5108 23.5449 59.7084 23.5449C59.8566 23.5449 59.99 23.5746 60.1086 23.6338C60.2271 23.6832 60.3061 23.7722 60.3457 23.9006L61.6646 27.6649L62.6131 24.4786C62.6724 24.281 62.7712 24.1575 62.9095 24.1081C63.0478 24.0587 63.201 24.034 63.3689 24.034C63.5369 24.034 63.69 24.0587 63.8284 24.1081C63.9667 24.1575 64.0655 24.281 64.1248 24.4786L65.0732 27.6649L66.3922 23.9006C66.4712 23.6635 66.6787 23.5449 67.0146 23.5449C67.2024 23.5449 67.4148 23.5844 67.6519 23.6635C67.889 23.7425 68.0916 23.8561 68.2595 24.0043C68.4374 24.1427 68.5263 24.3057 68.5263 24.4934C68.5263 24.5329 68.5213 24.5774 68.5115 24.6268C68.5016 24.6762 68.4868 24.7256 68.467 24.775L66.1847 30.4807C66.1254 30.6289 66.0118 30.7326 65.8439 30.7919C65.6759 30.8512 65.4931 30.8808 65.2955 30.8808C65.0782 30.8808 64.8756 30.8462 64.6879 30.7771C64.5101 30.7079 64.3965 30.6091 64.3471 30.4807L63.3689 27.902L62.3908 30.4807C62.3513 30.6091 62.2377 30.7079 62.05 30.7771C61.8622 30.8462 61.6548 30.8808 61.4275 30.8808Z" fill="black"/>
<path d="M54.3915 30.8363C53.7888 30.8363 53.2306 30.6931 52.7168 30.4066C52.2129 30.1102 51.8029 29.7248 51.4868 29.2506C51.1805 28.7665 51.0273 28.2478 51.0273 27.6945V26.6571C51.0273 26.1038 51.1755 25.5901 51.4719 25.1158C51.7782 24.6416 52.1882 24.2612 52.702 23.9747C53.2158 23.6882 53.7789 23.5449 54.3915 23.5449C54.9941 23.5449 55.5524 23.6882 56.0661 23.9747C56.5799 24.2513 56.9899 24.6268 57.2962 25.101C57.6123 25.5654 57.7704 26.0841 57.7704 26.6571V27.6945C57.7704 28.2379 57.6123 28.7517 57.2962 29.2358C56.9899 29.71 56.5799 30.0953 56.0661 30.3917C55.5524 30.6881 54.9941 30.8363 54.3915 30.8363ZM54.3915 28.8356C54.5891 28.8356 54.7669 28.7813 54.925 28.6726C55.0929 28.5639 55.2263 28.4256 55.3251 28.2577C55.4239 28.0798 55.4733 27.8921 55.4733 27.6945V26.6571C55.4733 26.4694 55.4239 26.2916 55.3251 26.1236C55.2263 25.9556 55.0929 25.8173 54.925 25.7086C54.7669 25.6 54.5891 25.5456 54.3915 25.5456C54.1939 25.5456 54.0111 25.6 53.8431 25.7086C53.6851 25.8173 53.5566 25.9556 53.4578 26.1236C53.3689 26.2916 53.3244 26.4694 53.3244 26.6571V27.6945C53.3244 27.8921 53.3689 28.0798 53.4578 28.2577C53.5566 28.4256 53.6851 28.5639 53.8431 28.6726C54.0111 28.7813 54.1939 28.8356 54.3915 28.8356Z" fill="black"/>
<path d="M42.2816 30.7768C41.9457 30.7768 41.6246 30.7126 41.3183 30.5841C41.0219 30.4557 40.8342 30.263 40.7552 30.0062L37.806 20.966C37.7862 20.9067 37.7764 20.8425 37.7764 20.7733C37.7764 20.6054 37.8554 20.4522 38.0135 20.3139C38.1716 20.1756 38.3642 20.0669 38.5915 19.9879C38.8286 19.899 39.0558 19.8545 39.2732 19.8545C39.451 19.8545 39.6091 19.8891 39.7474 19.9582C39.8857 20.0175 39.9747 20.1262 40.0142 20.2843L42.2668 27.8869L43.4376 22.8778C43.487 22.6802 43.6204 22.532 43.8377 22.4332C44.065 22.3245 44.3021 22.2701 44.5491 22.2701C44.806 22.2701 45.0431 22.3245 45.2604 22.4332C45.4877 22.532 45.6211 22.6802 45.6606 22.8778L46.8314 27.8869L49.084 20.2843C49.1334 20.1262 49.2223 20.0175 49.3507 19.9582C49.4891 19.8891 49.6471 19.8545 49.825 19.8545C50.0522 19.8545 50.2795 19.899 50.5067 19.9879C50.7339 20.0669 50.9266 20.1756 51.0847 20.3139C51.2428 20.4522 51.3218 20.6054 51.3218 20.7733C51.3218 20.8425 51.3119 20.9067 51.2922 20.966L48.343 30.0062C48.2541 30.263 48.0614 30.4557 47.765 30.5841C47.4785 30.7126 47.1623 30.7768 46.8165 30.7768C46.4806 30.7768 46.1595 30.7126 45.8532 30.5841C45.5568 30.4557 45.379 30.263 45.3197 30.0062L44.5491 26.4938L43.7784 30.0062C43.7192 30.263 43.5364 30.4557 43.2301 30.5841C42.9337 30.7126 42.6175 30.7768 42.2816 30.7768Z" fill="black"/>
</svg>
